<mxfile host="app.diagrams.net" modified="2023-03-28T08:09:44.944Z" agent="Mozilla/5.0 (Windows NT 10.0; Win64; x64) AppleWebKit/537.36 (KHTML, like Gecko) Chrome/111.0.0.0 Safari/537.36" etag="3MbaWeqYeL7m9vbERr-W" version="21.1.1" type="github">
  <diagram name="第1頁" id="n_6KNnxxUDfpkpfA5Sfg">
    <mxGraphModel dx="744" dy="416" grid="1" gridSize="10" guides="1" tooltips="1" connect="1" arrows="1" fold="1" page="1" pageScale="1" pageWidth="827" pageHeight="1169" math="0" shadow="0">
      <root>
        <mxCell id="0" />
        <mxCell id="1" parent="0" />
        <mxCell id="e0zNeh-qrCsgJ_N2ELot-1" value="hospital" style="rounded=0;whiteSpace=wrap;html=1;" vertex="1" parent="1">
          <mxGeometry x="230" y="340" width="60" height="30" as="geometry" />
        </mxCell>
        <mxCell id="e0zNeh-qrCsgJ_N2ELot-3" value="doctor" style="rounded=0;whiteSpace=wrap;html=1;" vertex="1" parent="1">
          <mxGeometry x="400" y="360" width="70" height="30" as="geometry" />
        </mxCell>
        <mxCell id="e0zNeh-qrCsgJ_N2ELot-4" value="patient" style="rounded=0;whiteSpace=wrap;html=1;" vertex="1" parent="1">
          <mxGeometry x="600" y="400" width="60" height="30" as="geometry" />
        </mxCell>
        <mxCell id="e0zNeh-qrCsgJ_N2ELot-5" value="" style="endArrow=none;html=1;rounded=0;entryX=0.25;entryY=0;entryDx=0;entryDy=0;exitX=0.57;exitY=0.969;exitDx=0;exitDy=0;exitPerimeter=0;" edge="1" parent="1" source="e0zNeh-qrCsgJ_N2ELot-6" target="e0zNeh-qrCsgJ_N2ELot-3">
          <mxGeometry width="50" height="50" relative="1" as="geometry">
            <mxPoint x="370" y="320" as="sourcePoint" />
            <mxPoint x="490" y="410" as="targetPoint" />
          </mxGeometry>
        </mxCell>
        <mxCell id="e0zNeh-qrCsgJ_N2ELot-6" value="&lt;u&gt;ID&lt;/u&gt;" style="ellipse;whiteSpace=wrap;html=1;" vertex="1" parent="1">
          <mxGeometry x="340" y="280" width="50" height="40" as="geometry" />
        </mxCell>
        <mxCell id="e0zNeh-qrCsgJ_N2ELot-7" value="specialty" style="ellipse;whiteSpace=wrap;html=1;" vertex="1" parent="1">
          <mxGeometry x="450" y="270" width="60" height="40" as="geometry" />
        </mxCell>
        <mxCell id="e0zNeh-qrCsgJ_N2ELot-8" value="" style="endArrow=none;html=1;rounded=0;entryX=0.438;entryY=1.038;entryDx=0;entryDy=0;entryPerimeter=0;exitX=0.75;exitY=0;exitDx=0;exitDy=0;" edge="1" parent="1" source="e0zNeh-qrCsgJ_N2ELot-3" target="e0zNeh-qrCsgJ_N2ELot-7">
          <mxGeometry width="50" height="50" relative="1" as="geometry">
            <mxPoint x="440" y="460" as="sourcePoint" />
            <mxPoint x="490" y="410" as="targetPoint" />
          </mxGeometry>
        </mxCell>
        <mxCell id="e0zNeh-qrCsgJ_N2ELot-9" value="treatment" style="rounded=0;whiteSpace=wrap;html=1;" vertex="1" parent="1">
          <mxGeometry x="480" y="480" width="90" height="30" as="geometry" />
        </mxCell>
        <mxCell id="e0zNeh-qrCsgJ_N2ELot-10" value="outcome" style="ellipse;whiteSpace=wrap;html=1;" vertex="1" parent="1">
          <mxGeometry x="320" y="550" width="60" height="40" as="geometry" />
        </mxCell>
        <mxCell id="e0zNeh-qrCsgJ_N2ELot-11" value="" style="endArrow=none;html=1;rounded=0;entryX=0;entryY=0;entryDx=0;entryDy=0;exitX=1;exitY=1;exitDx=0;exitDy=0;" edge="1" parent="1" target="e0zNeh-qrCsgJ_N2ELot-10" source="e0zNeh-qrCsgJ_N2ELot-20">
          <mxGeometry width="50" height="50" relative="1" as="geometry">
            <mxPoint x="463" y="370" as="sourcePoint" />
            <mxPoint x="500" y="420" as="targetPoint" />
          </mxGeometry>
        </mxCell>
        <mxCell id="e0zNeh-qrCsgJ_N2ELot-12" value="test technician" style="ellipse;whiteSpace=wrap;html=1;" vertex="1" parent="1">
          <mxGeometry x="260" y="545" width="60" height="50" as="geometry" />
        </mxCell>
        <mxCell id="e0zNeh-qrCsgJ_N2ELot-13" value="" style="endArrow=none;html=1;rounded=0;entryX=0;entryY=0;entryDx=0;entryDy=0;exitX=0.75;exitY=1;exitDx=0;exitDy=0;" edge="1" parent="1" target="e0zNeh-qrCsgJ_N2ELot-12" source="e0zNeh-qrCsgJ_N2ELot-20">
          <mxGeometry width="50" height="50" relative="1" as="geometry">
            <mxPoint x="473" y="380" as="sourcePoint" />
            <mxPoint x="510" y="430" as="targetPoint" />
          </mxGeometry>
        </mxCell>
        <mxCell id="e0zNeh-qrCsgJ_N2ELot-14" value="results" style="ellipse;whiteSpace=wrap;html=1;" vertex="1" parent="1">
          <mxGeometry x="590" y="570" width="60" height="40" as="geometry" />
        </mxCell>
        <mxCell id="e0zNeh-qrCsgJ_N2ELot-15" value="" style="endArrow=none;html=1;rounded=0;entryX=0.3;entryY=0.027;entryDx=0;entryDy=0;entryPerimeter=0;exitX=0.75;exitY=1;exitDx=0;exitDy=0;" edge="1" parent="1" target="e0zNeh-qrCsgJ_N2ELot-14" source="e0zNeh-qrCsgJ_N2ELot-9">
          <mxGeometry width="50" height="50" relative="1" as="geometry">
            <mxPoint x="483" y="390" as="sourcePoint" />
            <mxPoint x="520" y="440" as="targetPoint" />
          </mxGeometry>
        </mxCell>
        <mxCell id="e0zNeh-qrCsgJ_N2ELot-16" value="description" style="ellipse;whiteSpace=wrap;html=1;" vertex="1" parent="1">
          <mxGeometry x="500" y="570" width="60" height="40" as="geometry" />
        </mxCell>
        <mxCell id="e0zNeh-qrCsgJ_N2ELot-17" value="" style="endArrow=none;html=1;rounded=0;exitX=0.39;exitY=1.022;exitDx=0;exitDy=0;exitPerimeter=0;" edge="1" parent="1" target="e0zNeh-qrCsgJ_N2ELot-16" source="e0zNeh-qrCsgJ_N2ELot-9">
          <mxGeometry width="50" height="50" relative="1" as="geometry">
            <mxPoint x="493" y="400" as="sourcePoint" />
            <mxPoint x="530" y="450" as="targetPoint" />
          </mxGeometry>
        </mxCell>
        <mxCell id="e0zNeh-qrCsgJ_N2ELot-18" value="date" style="ellipse;whiteSpace=wrap;html=1;" vertex="1" parent="1">
          <mxGeometry x="430" y="565" width="60" height="40" as="geometry" />
        </mxCell>
        <mxCell id="e0zNeh-qrCsgJ_N2ELot-19" value="" style="endArrow=none;html=1;rounded=0;entryX=0.25;entryY=1;entryDx=0;entryDy=0;exitX=0.5;exitY=0;exitDx=0;exitDy=0;" edge="1" parent="1" target="e0zNeh-qrCsgJ_N2ELot-9" source="e0zNeh-qrCsgJ_N2ELot-18">
          <mxGeometry width="50" height="50" relative="1" as="geometry">
            <mxPoint x="453" y="630" as="sourcePoint" />
            <mxPoint x="490" y="680" as="targetPoint" />
          </mxGeometry>
        </mxCell>
        <mxCell id="e0zNeh-qrCsgJ_N2ELot-20" value="test" style="rounded=0;whiteSpace=wrap;html=1;" vertex="1" parent="1">
          <mxGeometry x="240" y="445" width="60" height="35" as="geometry" />
        </mxCell>
        <mxCell id="e0zNeh-qrCsgJ_N2ELot-21" value="type" style="ellipse;whiteSpace=wrap;html=1;" vertex="1" parent="1">
          <mxGeometry x="130" y="540" width="60" height="40" as="geometry" />
        </mxCell>
        <mxCell id="e0zNeh-qrCsgJ_N2ELot-22" value="" style="endArrow=none;html=1;rounded=0;entryX=0.25;entryY=1;entryDx=0;entryDy=0;exitX=0.5;exitY=0;exitDx=0;exitDy=0;" edge="1" parent="1" source="e0zNeh-qrCsgJ_N2ELot-21" target="e0zNeh-qrCsgJ_N2ELot-20">
          <mxGeometry width="50" height="50" relative="1" as="geometry">
            <mxPoint x="203" y="609.01" as="sourcePoint" />
            <mxPoint x="250.25999999999988" y="472.995" as="targetPoint" />
          </mxGeometry>
        </mxCell>
        <mxCell id="e0zNeh-qrCsgJ_N2ELot-23" value="date" style="ellipse;whiteSpace=wrap;html=1;" vertex="1" parent="1">
          <mxGeometry x="200" y="545" width="60" height="40" as="geometry" />
        </mxCell>
        <mxCell id="e0zNeh-qrCsgJ_N2ELot-24" value="" style="endArrow=none;html=1;rounded=0;entryX=0.419;entryY=0.95;entryDx=0;entryDy=0;exitX=0.5;exitY=0;exitDx=0;exitDy=0;entryPerimeter=0;" edge="1" parent="1" source="e0zNeh-qrCsgJ_N2ELot-23" target="e0zNeh-qrCsgJ_N2ELot-20">
          <mxGeometry width="50" height="50" relative="1" as="geometry">
            <mxPoint x="283" y="610" as="sourcePoint" />
            <mxPoint x="333" y="490" as="targetPoint" />
          </mxGeometry>
        </mxCell>
      </root>
    </mxGraphModel>
  </diagram>
</mxfile>
